<svg width="75" height="75" viewBox="0 0 75 75" fill="none" xmlns="http://www.w3.org/2000/svg">
<path d="M38 1L37 1C17.1177 1 1 17.1177 1 37C1 56.8822 17.1178 73 37 73L38 73C57.8822 73 74 56.8822 74 37C74 17.1177 57.8822 1 38 1Z" fill="#AF6923"/>
<path d="M2.11108 28.8284C12.4089 27.3063 31.2826 26.0888 36.5497 27.3064C43.1336 28.8284 54.7819 37.9607 62.3787 36.946C67.0069 36.3278 63.3916 37.7916 58.8335 39.4828C53.9378 36.946 39.3859 33.2931 36.5497 34.9166C33.0046 36.946 2.11105 43.0341 2.11108 48.6149C2.11111 52.8524 2.11108 35.7621 2.11108 28.8284Z" fill="#8E531B"/>
<path d="M69.5134 54.2552C72.0139 50.8022 45.0229 49.3304 34.8939 50.9539C24.7649 52.5774 28.9853 52.9833 32.3617 52.9833L42.4907 52.9833L55.1519 53.998C56.8401 54.5053 59.71 55.2156 57.6842 58.0567C55.1519 61.6082 47.5552 56.0274 43.5036 56.5347C39.452 57.0421 34.5764 60.6116 29.0054 62.641C24.5486 64.2645 19.5416 61.5982 16.5029 63.6276C19.204 62.9511 22.8585 65.2823 26.5049 66.094C31.063 67.1087 44.5165 57.042 46.0358 58.5641C47.5552 60.0861 58.1906 65.6669 59.2035 65.1596C60.2164 64.6523 61.7358 60.5935 62.7487 62.1155C63.559 63.3332 62.5057 61.5982 63.0121 63.6276L67.0129 59.188L69.5134 54.2552Z" fill="#8E531B"/>
<path d="M57.011 8.87311C54.4787 11.2407 60.9606 12.9992 51.2368 12.5933C39.082 12.086 15.2788 14.1153 8.69495 20.2035C3.42787 25.074 4.98097 24.6005 4.64334 25.277L11.7337 20.2035C19.4992 17.6668 38.2716 12.8977 51.2368 14.1153C64.2019 15.333 57.0237 14.5527 60.5688 11.3395L57.011 8.87311Z" fill="#8E531B"/>
<ellipse cx="5.6641" cy="1.81038" rx="5.6641" ry="1.81038" transform="matrix(0.988 -0.154456 0.153924 0.988083 35.0066 8.64966)" fill="#8E531B"/>
<ellipse cx="2.65318" cy="1.2006" rx="2.65318" ry="1.2006" transform="matrix(0.978577 0.205883 -0.205187 0.978723 50.5022 54.2552)" fill="#8E531B"/>
<path d="M8.00122 59.6813C14.4163 60.5268 26.6821 58.2545 29.9234 56.2251C33.975 53.6884 36.7929 48.2144 44.6104 46.0782C50.1814 44.556 49.6749 44.5561 37.5201 46.0782C36.0008 48.6149 28.404 53.8912 22.3266 54.7029C16.2492 55.5147 9.06493 53.1135 4.00043 52.7753L5.00063 55.2417L8.00122 59.6813Z" fill="#8E531B"/>
<path d="M72.014 43.9581C67.6865 44.9374 59.6309 46.6023 54.0385 45.4271C47.0481 43.9582 42.0549 37.5928 38.0604 38.5721C34.0659 39.5513 10.0986 43.4685 5.60478 47.8753C2.0097 51.4007 4.66777 49.3224 5.00065 49.3224L7.60205 47.8753C16.7562 44.9374 35.6637 39.2575 38.0604 40.0409C41.0563 41.0202 47.5474 43.9582 49.0454 45.4271C50.5433 46.896 56.0358 48.8546 58.5324 48.8546C60.5297 48.8546 67.6865 49.181 72.014 48.8546L72.014 43.9581Z" fill="#8E531B"/>
<path d="M2.00003 37.5C2.00003 17.8939 17.8939 2 37.5 2C57.1061 2 73 17.8939 73 37.5C73 57.1061 57.1061 73 37.5 73C17.8939 73 2.00003 57.1061 2.00003 37.5Z" stroke="#4B3307" stroke-width="3" stroke-linecap="round" stroke-linejoin="round" stroke-dasharray="4 4"/>
<path fill-rule="evenodd" clip-rule="evenodd" d="M67 32.4127C67 31.8604 66.5523 31.4127 66 31.4127L57.5065 31.4127C56.9992 29.9 56.3211 28.4657 55.4952 27.1326L60.7417 21.8861C61.1322 21.4956 61.1322 20.8624 60.7417 20.4719L53.6595 13.3896C53.2689 12.9991 52.6358 12.9991 52.2452 13.3896L46.449 19.1859C45.5291 18.7699 44.5732 18.4195 43.5873 18.1407L43.5873 9C43.5873 8.44772 43.1396 8 42.5873 8L32.4127 8C31.8604 8 31.4127 8.44772 31.4127 9L31.4127 18.4299C30.3405 18.7895 29.3076 19.2349 28.3223 19.758L21.8861 13.3217C21.4955 12.9312 20.8624 12.9312 20.4719 13.3217L13.3896 20.404C12.9991 20.7945 12.9991 21.4277 13.3896 21.8182L19.8052 28.2338C19.2617 29.2457 18.8003 30.3083 18.4299 31.4127L9 31.4127C8.44772 31.4127 8 31.8604 8 32.4127L8 42.5873C8 43.1396 8.44772 43.5873 9 43.5873L18.1406 43.5873C18.4195 44.5732 18.7699 45.5291 19.1859 46.449L13.4429 52.192C13.0524 52.5825 13.0524 53.2157 13.4429 53.6062L20.5251 60.6884C20.9157 61.079 21.5488 61.079 21.9393 60.6884L27.1325 55.4953C28.4657 56.3212 29.9 56.9993 31.4127 57.5066L31.4127 66C31.4127 66.5523 31.8604 67 32.4127 67L42.5873 67C43.1396 67 43.5873 66.5523 43.5873 66L43.5873 57.7959C45.0296 57.3879 46.4077 56.8269 47.7027 56.1313L52.192 60.6206C52.5825 61.0111 53.2157 61.0111 53.6062 60.6206L60.6884 53.5383C61.079 53.1478 61.079 52.5146 60.6884 52.1241L56.1785 47.6142C56.8523 46.3449 57.3972 44.9968 57.7958 43.5873L66 43.5873C66.5523 43.5873 67 43.1396 67 42.5873L67 32.4127ZM37.5 50.1429C44.4824 50.1429 50.1428 44.4825 50.1428 37.5C50.1428 30.5176 44.4824 24.8572 37.5 24.8572C30.5175 24.8572 24.8571 30.5176 24.8571 37.5C24.8571 44.4825 30.5175 50.1429 37.5 50.1429Z" fill="#4B3307"/>
</svg>
