<svg width="91" height="91" viewBox="0 0 91 91" fill="none" xmlns="http://www.w3.org/2000/svg">
<g filter="url(#filter0_dddd_134_468)">
<path d="M46 9L45 9C25.1177 9 9 25.1177 9 45C9 64.8822 25.1178 81 45 81L46 81C65.8822 81 82 64.8822 82 45C82 25.1177 65.8822 9 46 9Z" fill="#AF6923"/>
<path d="M10.1111 36.8284C20.4089 35.3063 39.2826 34.0888 44.5497 35.3064C51.1336 36.8284 62.7819 45.9607 70.3787 44.946C75.0069 44.3278 71.3916 45.7916 66.8335 47.4828C61.9378 44.946 47.3859 41.2931 44.5497 42.9166C41.0046 44.946 10.1111 51.0341 10.1111 56.6149C10.1111 60.8524 10.1111 43.7621 10.1111 36.8284Z" fill="#8E531B"/>
<path d="M77.5134 62.2552C80.0139 58.8022 53.0229 57.3304 42.8939 58.9539C32.7649 60.5774 36.9853 60.9833 40.3617 60.9833L50.4907 60.9833L63.1519 61.998C64.8401 62.5053 67.71 63.2156 65.6842 66.0567C63.1519 69.6082 55.5552 64.0274 51.5036 64.5347C47.452 65.0421 42.5764 68.6116 37.0054 70.641C32.5486 72.2645 27.5416 69.5982 24.5029 71.6276C27.204 70.9511 30.8585 73.2823 34.5049 74.094C39.063 75.1087 52.5165 65.042 54.0358 66.5641C55.5552 68.0861 66.1906 73.6669 67.2035 73.1596C68.2164 72.6523 69.7358 68.5935 70.7487 70.1155C71.559 71.3332 70.5057 69.5982 71.0121 71.6276L75.0129 67.188L77.5134 62.2552Z" fill="#8E531B"/>
<path d="M65.011 16.8731C62.4787 19.2407 68.9606 20.9992 59.2368 20.5933C47.082 20.086 23.2788 22.1153 16.695 28.2035C11.4279 33.074 12.981 32.6005 12.6433 33.277L19.7337 28.2035C27.4992 25.6668 46.2716 20.8977 59.2368 22.1153C72.2019 23.333 65.0237 22.5527 68.5688 19.3395L65.011 16.8731Z" fill="#8E531B"/>
<ellipse cx="5.6641" cy="1.81038" rx="5.6641" ry="1.81038" transform="matrix(0.988 -0.154456 0.153924 0.988083 43.0066 16.6497)" fill="#8E531B"/>
<ellipse cx="2.65318" cy="1.2006" rx="2.65318" ry="1.2006" transform="matrix(0.978577 0.205883 -0.205187 0.978723 58.5022 62.2552)" fill="#8E531B"/>
<path d="M16.0012 67.6813C22.4163 68.5268 34.6821 66.2545 37.9234 64.2251C41.975 61.6884 44.7929 56.2144 52.6104 54.0782C58.1814 52.556 57.6749 52.5561 45.5201 54.0782C44.0008 56.6149 36.404 61.8912 30.3266 62.7029C24.2492 63.5147 17.0649 61.1135 12.0004 60.7753L13.0006 63.2417L16.0012 67.6813Z" fill="#8E531B"/>
<path d="M80.014 51.9581C75.6865 52.9374 67.6309 54.6023 62.0385 53.4271C55.0481 51.9582 50.0549 45.5928 46.0604 46.5721C42.0659 47.5513 18.0986 51.4685 13.6048 55.8753C10.0097 59.4007 12.6678 57.3224 13.0006 57.3224L15.6021 55.8753C24.7562 52.9374 43.6637 47.2575 46.0604 48.0409C49.0563 49.0202 55.5474 51.9582 57.0454 53.4271C58.5433 54.896 64.0358 56.8546 66.5324 56.8546C68.5297 56.8546 75.6865 57.181 80.014 56.8546L80.014 51.9581Z" fill="#8E531B"/>
<path d="M10 45.5C10 25.8939 25.8939 10 45.5 10C65.1061 10 81 25.8939 81 45.5C81 65.1061 65.1061 81 45.5 81C25.8939 81 10 65.1061 10 45.5Z" stroke="#4B3307" stroke-width="3" stroke-linecap="round" stroke-linejoin="round" stroke-dasharray="4 4"/>
</g>
<path fill-rule="evenodd" clip-rule="evenodd" d="M75 40.4127C75 39.8604 74.5523 39.4127 74 39.4127L65.5065 39.4127C64.9992 37.9 64.3211 36.4657 63.4952 35.1326L68.7417 29.8861C69.1322 29.4956 69.1322 28.8624 68.7417 28.4719L61.6595 21.3896C61.2689 20.9991 60.6358 20.9991 60.2452 21.3896L54.449 27.1859C53.5291 26.7699 52.5732 26.4195 51.5873 26.1407L51.5873 17C51.5873 16.4477 51.1396 16 50.5873 16L40.4127 16C39.8604 16 39.4127 16.4477 39.4127 17L39.4127 26.4299C38.3405 26.7895 37.3076 27.2349 36.3223 27.758L29.8861 21.3217C29.4955 20.9312 28.8624 20.9312 28.4719 21.3217L21.3896 28.404C20.9991 28.7945 20.9991 29.4277 21.3896 29.8182L27.8052 36.2338C27.2617 37.2457 26.8003 38.3083 26.4299 39.4127L17 39.4127C16.4477 39.4127 16 39.8604 16 40.4127L16 50.5873C16 51.1396 16.4477 51.5873 17 51.5873L26.1406 51.5873C26.4195 52.5732 26.7699 53.5291 27.1859 54.449L21.4429 60.192C21.0524 60.5825 21.0524 61.2157 21.4429 61.6062L28.5251 68.6884C28.9157 69.079 29.5488 69.079 29.9393 68.6884L35.1325 63.4953C36.4657 64.3212 37.9 64.9993 39.4127 65.5066L39.4127 74C39.4127 74.5523 39.8604 75 40.4127 75L50.5873 75C51.1396 75 51.5873 74.5523 51.5873 74L51.5873 65.7959C53.0296 65.3879 54.4077 64.8269 55.7027 64.1313L60.192 68.6206C60.5825 69.0111 61.2157 69.0111 61.6062 68.6206L68.6884 61.5383C69.079 61.1478 69.079 60.5146 68.6884 60.1241L64.1785 55.6142C64.8523 54.3449 65.3972 52.9968 65.7958 51.5873L74 51.5873C74.5523 51.5873 75 51.1396 75 50.5873L75 40.4127ZM45.5 58.1429C52.4824 58.1429 58.1428 52.4825 58.1428 45.5C58.1428 38.5176 52.4824 32.8572 45.5 32.8572C38.5175 32.8572 32.8571 38.5176 32.8571 45.5C32.8571 52.4825 38.5175 58.1429 45.5 58.1429Z" fill="#4B3307"/>
<defs>
<filter id="filter0_dddd_134_468" x="0.500031" y="0.5" width="90" height="90" filterUnits="userSpaceOnUse" color-interpolation-filters="sRGB">
<feFlood flood-opacity="0" result="BackgroundImageFix"/>
<feColorMatrix in="SourceAlpha" type="matrix" values="0 0 0 0 0 0 0 0 0 0 0 0 0 0 0 0 0 0 127 0" result="hardAlpha"/>
<feOffset dx="-4" dy="-4"/>
<feGaussianBlur stdDeviation="2"/>
<feComposite in2="hardAlpha" operator="out"/>
<feColorMatrix type="matrix" values="0 0 0 0 0.94902 0 0 0 0 0.717647 0 0 0 0 0.419608 0 0 0 0.5 0"/>
<feBlend mode="normal" in2="BackgroundImageFix" result="effect1_dropShadow_134_468"/>
<feColorMatrix in="SourceAlpha" type="matrix" values="0 0 0 0 0 0 0 0 0 0 0 0 0 0 0 0 0 0 127 0" result="hardAlpha"/>
<feOffset dx="4" dy="4"/>
<feGaussianBlur stdDeviation="2"/>
<feComposite in2="hardAlpha" operator="out"/>
<feColorMatrix type="matrix" values="0 0 0 0 0.94902 0 0 0 0 0.717647 0 0 0 0 0.419608 0 0 0 0.5 0"/>
<feBlend mode="normal" in2="effect1_dropShadow_134_468" result="effect2_dropShadow_134_468"/>
<feColorMatrix in="SourceAlpha" type="matrix" values="0 0 0 0 0 0 0 0 0 0 0 0 0 0 0 0 0 0 127 0" result="hardAlpha"/>
<feOffset dx="-4" dy="4"/>
<feGaussianBlur stdDeviation="2"/>
<feComposite in2="hardAlpha" operator="out"/>
<feColorMatrix type="matrix" values="0 0 0 0 0.94902 0 0 0 0 0.717647 0 0 0 0 0.419608 0 0 0 0.5 0"/>
<feBlend mode="normal" in2="effect2_dropShadow_134_468" result="effect3_dropShadow_134_468"/>
<feColorMatrix in="SourceAlpha" type="matrix" values="0 0 0 0 0 0 0 0 0 0 0 0 0 0 0 0 0 0 127 0" result="hardAlpha"/>
<feOffset dx="4" dy="-4"/>
<feGaussianBlur stdDeviation="2"/>
<feComposite in2="hardAlpha" operator="out"/>
<feColorMatrix type="matrix" values="0 0 0 0 0.94902 0 0 0 0 0.717647 0 0 0 0 0.419608 0 0 0 0.5 0"/>
<feBlend mode="normal" in2="effect3_dropShadow_134_468" result="effect4_dropShadow_134_468"/>
<feBlend mode="normal" in="SourceGraphic" in2="effect4_dropShadow_134_468" result="shape"/>
</filter>
</defs>
</svg>
