<svg width="75" height="75" viewBox="0 0 75 75" fill="none" xmlns="http://www.w3.org/2000/svg">
<path d="M38 1L37 1C17.1177 1 0.999987 17.1177 0.999987 37C0.999987 56.8822 17.1177 73 37 73L38 73C57.8822 73 74 56.8822 74 37C74 17.1177 57.8822 1 38 1Z" fill="#AF6923"/>
<path d="M2.11106 28.8284C12.4089 27.3063 31.2826 26.0888 36.5497 27.3064C43.1336 28.8284 54.7819 37.9607 62.3787 36.946C67.0069 36.3278 63.3915 37.7916 58.8335 39.4828C53.9378 36.946 39.3858 33.2931 36.5497 34.9166C33.0046 36.946 2.11102 43.0341 2.11106 48.6149C2.11108 52.8524 2.11106 35.7621 2.11106 28.8284Z" fill="#8E531B"/>
<path d="M69.5134 54.2552C72.0139 50.8022 45.0229 49.3304 34.8939 50.9539C24.7649 52.5774 28.9853 52.9833 32.3616 52.9833L42.4906 52.9833L55.1519 53.998C56.8401 54.5053 59.7099 55.2156 57.6841 58.0567C55.1519 61.6082 47.5551 56.0274 43.5035 56.5347C39.4519 57.0421 34.5763 60.6116 29.0054 62.641C24.5486 64.2645 19.5416 61.5982 16.5029 63.6276C19.204 62.9511 22.8584 65.2823 26.5049 66.094C31.0629 67.1087 44.5164 57.042 46.0358 58.5641C47.5551 60.0861 58.1906 65.6669 59.2035 65.1596C60.2164 64.6523 61.7357 60.5935 62.7486 62.1155C63.559 63.3332 62.5057 61.5982 63.0121 63.6276L67.0129 59.188L69.5134 54.2552Z" fill="#8E531B"/>
<path d="M57.0109 8.87311C54.4787 11.2407 60.9606 12.9992 51.2367 12.5933C39.0819 12.086 15.2788 14.1153 8.69491 20.2035C3.42783 25.074 4.98094 24.6005 4.64331 25.277L11.7336 20.2035C19.4992 17.6668 38.2716 12.8977 51.2367 14.1153C64.2019 15.333 57.0236 14.5527 60.5688 11.3395L57.0109 8.87311Z" fill="#8E531B"/>
<ellipse cx="5.6641" cy="1.81038" rx="5.6641" ry="1.81038" transform="matrix(0.988 -0.154456 0.153924 0.988083 35.0066 8.64966)" fill="#8E531B"/>
<ellipse cx="2.65318" cy="1.2006" rx="2.65318" ry="1.2006" transform="matrix(0.978577 0.205883 -0.205187 0.978723 50.5022 54.2552)" fill="#8E531B"/>
<path d="M8.0012 59.6813C14.4162 60.5268 26.6821 58.2545 29.9234 56.2251C33.975 53.6884 36.7928 48.2144 44.6104 46.0782C50.1814 44.556 49.6749 44.5561 37.5201 46.0782C36.0008 48.6149 28.404 53.8912 22.3266 54.7029C16.2492 55.5147 9.06491 53.1135 4.00041 52.7753L5.0006 55.2417L8.0012 59.6813Z" fill="#8E531B"/>
<path d="M72.0139 43.9581C67.6865 44.9374 59.6308 46.6023 54.0385 45.4271C47.0481 43.9582 42.0549 37.5928 38.0604 38.5721C34.0658 39.5513 10.0986 43.4685 5.60474 47.8753C2.00966 51.4007 4.66772 49.3224 5.0006 49.3224L7.60201 47.8753C16.7562 44.9374 35.6636 39.2575 38.0604 40.0409C41.0563 41.0202 47.5474 43.9582 49.0453 45.4271C50.5433 46.896 56.0358 48.8546 58.5323 48.8546C60.5296 48.8546 67.6865 49.181 72.0139 48.8546L72.0139 43.9581Z" fill="#8E531B"/>
<path d="M2.00002 37.5C2.00002 17.8939 17.8939 2 37.5 2C57.1061 2 73 17.8939 73 37.5C73 57.1061 57.1061 73 37.5 73C17.8939 73 2.00002 57.1061 2.00002 37.5Z" stroke="#4B3307" stroke-width="3" stroke-linecap="round" stroke-linejoin="round" stroke-dasharray="4 4"/>
<path d="M36.5 14C50.031 14 61 24.969 61 38.5C61 52.031 50.031 63 36.5 63C22.969 63 12 52.031 12 38.5" stroke="#4B3307" stroke-width="5" stroke-linecap="round" stroke-linejoin="round"/>
<path d="M23.8884 14.0977C23.1299 14.4601 23.1299 15.5399 23.8884 15.9023L42.3189 24.7085C42.9826 25.0256 43.75 24.5418 43.75 23.8062L43.75 6.19379C43.75 5.45821 42.9826 4.97437 42.3189 5.2915L23.8884 14.0977Z" fill="#4B3307"/>
</svg>
