<svg width="47" height="46" viewBox="0 0 47 46" fill="none" xmlns="http://www.w3.org/2000/svg">
<path d="M22.2297 40.7473L39.0563 27.8061L43.1892 17.0836L41.9279 6.7403L29.2162 0.358887L22.7262 8.14815L13.973 0.358887L2.81338 6.7403L1.27026 17.0836L6.58393 28.2666L22.2297 40.7473Z" fill="#E9E9E9"/>
<path d="M22.2297 39.4652L38.1081 26.6435L41.5593 16.2108L39.3784 7.23562L29.8513 2.35368L22.2297 11.0821L13.973 2.10693L4.44593 7.23562L2.54053 16.2108L6.98647 26.4682L22.2297 39.4652Z" fill="#862C23"/>
<path d="M15.2432 14.4629L15.8784 7.41092V6.12875L16.5135 4.84658L13.973 2.10693L4.44593 7.23562L2.54053 16.2108L7.62161 18.3094L15.2432 14.4629ZM22.2298 39.4652L29.2162 24.0792L36.8378 17.6683L41.5593 16.2108L39.3784 7.23562L29.8514 2.35368L27.9459 4.84658L31.1216 11.8985L22.2298 20.2326V39.4652Z" fill="#F4200C"/>
<path d="M22.2297 39.4652L38.1081 26.6435L33.6621 25.3613L22.2297 39.4652ZM22.2297 39.4652L6.98646 26.6435L9.527 24.7202L11.4324 23.4381L22.2297 39.4652Z" fill="#FF6454"/>
<path d="M22.2371 39.4653L33.6621 25.3614L36.8378 17.6684L36.1941 10.3533L28.581 6.33203L22.2371 13.5217L15.8783 6.33203L7.76316 10.3533L7.62158 18.3095L9.29911 23.2454L22.2371 39.4653Z" fill="#CE2424"/>
</svg>
