<svg width="53" height="46" viewBox="0 0 53 46" fill="none" xmlns="http://www.w3.org/2000/svg">
<path d="M21.8495 9.37776L13.0211 2.76829L2.43849 10.0661L1.77541 20.4991L8.00875 31.1918L24.6233 42.2911C26.1061 31.2268 21.1572 20.2949 21.8396 9.3786L21.8495 9.37776Z" fill="#E9E9E9"/>
<path d="M21.796 12.4231L13.1686 4.51204L4.11479 10.4261L2.9684 19.5351L8.26727 29.3836L24.5487 41.0529L24.79 40.8218C25.5896 31.2905 22.012 21.8584 21.7877 12.4439L21.796 12.4231Z" fill="#862C23"/>
<path d="M4.11479 10.4261L2.96756 19.5252L8.20647 21.1896L15.4749 16.7111L15.5185 9.63221L15.4106 8.35677L15.9305 7.02822L13.1686 4.51204L4.11479 10.4261Z" fill="#F4200C"/>
<path d="M23.0013 22.7583L24.5478 41.043L24.8308 40.2363C25.2189 34.3828 24.0142 28.5636 23.0013 22.7583Z" fill="#F4200C"/>
<path d="M24.5478 41.043L24.7892 40.8119C24.7892 40.8119 24.8007 40.7106 24.8065 40.6599L24.5478 41.043Z" fill="#FF6454"/>
<path d="M10.6499 27.4159L8.28077 29.5431L24.5478 41.0431L12.4353 25.9803L10.6499 27.4159Z" fill="#FF6454"/>
<path d="M21.9126 14.7515L15.4274 8.55606L7.67511 13.2461L8.20646 21.1896L10.2968 25.9704L24.5578 41.0421L24.8073 40.6698C25.4966 31.9707 22.5702 23.3567 21.9126 14.7515Z" fill="#CE2424"/>
<path d="M21.6718 22.108L22.7253 21.1559C22.66 20.7399 22.5956 20.3339 22.5311 19.9279L21.6718 22.108Z" fill="#862C23"/>
<path d="M21.2934 17.634L22.3955 19.0361C22.2447 17.965 22.1038 16.893 22.0037 15.8277L21.2934 17.634Z" fill="#862C23"/>
<path d="M21.0544 29.8777L23.6972 26.7137C23.6143 26.2089 23.5215 25.705 23.4287 25.201L21.0544 29.8777Z" fill="#862C23"/>
<path d="M21.6718 22.108L23.192 23.826C23.0364 22.936 22.8808 22.0459 22.7352 21.155L21.6817 22.1072L21.6718 22.108Z" fill="#862C23"/>
<path d="M22.0066 33.6609L23.38 34.8293L22.914 36.7956L24.2874 37.964L23.5418 36.7425L24.0177 34.7754L22.6443 33.607L23.6932 30.9391L21.6282 29.1869L21.0544 29.8777L23.0555 30.993L22.0066 33.6609Z" fill="#862C23"/>
<path d="M21.8992 14.5922L21.6506 14.3824L20.1258 19.0174L19.4881 19.0713L20.2876 20.9305L20.1798 19.6551L20.7635 18.9634L21.2106 17.8418L21.2934 17.6341L22.0037 15.8278C21.9691 15.4192 21.9346 15.0107 21.9 14.6021L21.8992 14.5922Z" fill="#862C23"/>
<path d="M20.2984 20.9396L17.8753 22.4291L18.0372 24.3423L16.0261 23.2278L12.4454 26.0998L15.9174 21.9424L17.2907 23.1108L17.2368 22.4731L20.2436 20.2919L20.2976 20.9296L20.2984 20.9396Z" fill="#862C23"/>
<path d="M21.9211 17.5809L22.243 17.9451C22.2145 17.7267 22.186 17.5084 22.1575 17.29L21.9211 17.5809Z" fill="#862C23"/>
<g clip-path="url(#clip0_143_550)">
<path d="M50.1165 11.7904L38.676 3.34278L30.9563 9.91626L30.5319 9.37626C27.1044 19.775 29.1336 31.602 24.9175 41.9256L24.9436 41.9504L43.7282 32.0595L49.6203 22.1975L50.1362 11.7938L50.1165 11.7904Z" fill="#E9E9E9"/>
<path d="M48.1422 21.0598L47.5204 11.8399L38.9684 5.4127L29.9655 12.7187L29.7015 12.3079C27.5304 21.4823 28.6212 31.5137 25.4433 40.5247L42.9794 30.7533L48.1521 21.0615L48.1422 21.0598Z" fill="#862C23"/>
<path d="M47.5187 11.8497L38.9684 5.41266L36.6629 7.54177L38.5983 15.0297L28.4102 21.7355L28.2589 22.6126C27.7736 28.4855 27.4704 34.4204 25.6173 39.9864L34.6342 26.716L43.2329 21.6945L48.1324 21.058L47.5105 11.8381L47.5187 11.8497Z" fill="#F4200C"/>
<path d="M38.8117 28.7354L25.4868 40.3901C25.4868 40.3901 25.4501 40.4852 25.4317 40.5328L42.9679 30.7614L38.8002 28.7436L38.8117 28.7354Z" fill="#FF6454"/>
<path d="M43.2427 21.6961L43.8563 14.3739L37.0404 9.11881L29.5606 15.1248L29.2266 14.5903C27.6907 23.0828 28.3479 32.1565 25.4851 40.3999L38.8019 28.7337L43.2427 21.6961Z" fill="#CE2424"/>
<path d="M33.1014 20.7181L31.6323 21.7636L30.3808 21.5477L31.3378 19.7645L29.27 16.81L28.8424 17.1117C28.805 17.3285 28.7874 17.5487 28.7598 17.7672L29.9775 20.1793L29.6512 22.0713L31.4246 23.0267L33.0025 21.3505L36.0274 22.5217L33.1113 20.7198L33.1014 20.7181Z" fill="#862C23"/>
<path d="M40.91 19.9239L40.316 20.0142L39.5766 20.5361L37.2105 19.7221L35.7879 21.8513L33.6233 21.4576L35.9605 22.7334L37.3929 20.606L39.8555 21.5077L40.7105 20.3157L42.1472 21.5173L40.9233 19.9059L40.91 19.9239Z" fill="#862C23"/>
</g>
<defs>
<clipPath id="clip0_143_550">
<rect width="21.87" height="40.54" fill="white" transform="translate(30.8909 2) rotate(9.7866)"/>
</clipPath>
</defs>
</svg>
