<svg width="70" height="53" viewBox="0 0 70 53" fill="none" xmlns="http://www.w3.org/2000/svg">
<path d="M22.1661 13.1036L12.1533 8.48057L3.32539 17.8249L4.85266 28.1668L13.1789 37.3245L31.7428 44.7147C30.8856 33.5845 23.7657 23.9251 22.1565 13.1065L22.1661 13.1036Z" fill="#E9E9E9"/>
<path d="M22.7488 16.0931L12.6613 10.1552L5.03991 17.8274L5.81839 26.9752L13.0546 35.502L31.4116 43.5194L31.5995 43.2429C30.3938 33.7545 24.9277 25.2759 22.745 16.1151L22.7488 16.0931Z" fill="#862C23"/>
<path d="M5.03991 17.8274L5.81549 26.9656L11.2863 27.5009L17.4609 21.605L16.0273 14.6727L15.6558 13.4478L15.8872 12.0401L12.6613 10.1552L5.03991 17.8274Z" fill="#F4200C"/>
<path d="M26.083 25.9497L31.4087 43.5099L31.5173 42.6619C30.6761 36.8561 28.2843 31.4161 26.083 25.9497Z" fill="#F4200C"/>
<path d="M31.4087 43.5098L31.5966 43.2334C31.5966 43.2334 31.5867 43.1319 31.5818 43.0811L31.4087 43.5098Z" fill="#FF6454"/>
<path d="M14.9745 33.0806L13.1011 35.6552L31.4088 43.5098L16.4212 31.3043L14.9745 33.0806Z" fill="#FF6454"/>
<path d="M23.3485 18.3461L15.7138 13.6393L9.11006 19.843L11.2863 27.501L14.3277 31.7407L31.4183 43.507L31.5847 43.0908C30.4447 34.4393 25.7862 26.6249 23.3485 18.3461Z" fill="#CE2424"/>
<path d="M24.6471 25.591L25.4788 24.4401C25.3282 24.0469 25.1805 23.6632 25.0328 23.2796L24.6471 25.591Z" fill="#862C23"/>
<path d="M23.344 21.2943L24.7142 22.4357C24.3434 21.4196 23.9821 20.4006 23.6619 19.3796L23.344 21.2943Z" fill="#862C23"/>
<path d="M25.6636 33.3186L27.5884 29.673C27.4021 29.1966 27.2063 28.723 27.0104 28.2495L25.6636 33.3186Z" fill="#862C23"/>
<path d="M24.6471 25.591L26.4921 26.9542C26.1544 26.1162 25.8166 25.2781 25.4884 24.4372L24.6567 25.5881L24.6471 25.591Z" fill="#862C23"/>
<path d="M27.3839 36.8201L28.9707 37.6764L28.9251 39.6966L30.5119 40.5529L29.528 39.5137L29.5832 37.4906L27.9963 36.6343L28.4658 33.8063L26.0808 32.5233L25.6636 33.3186L27.8533 33.9921L27.3839 36.8201Z" fill="#862C23"/>
<path d="M23.302 18.1929L23.0152 18.0396L22.4905 22.8907L21.8781 23.0764L23.0478 24.728L22.6763 23.5031L23.103 22.7049L23.3063 21.5147L23.3439 21.2943L23.6619 19.3795C23.5429 18.9872 23.4239 18.5948 23.3049 18.2025L23.302 18.1929Z" fill="#862C23"/>
<path d="M23.0603 24.7347L21.0011 26.6968L21.5583 28.5342L19.3591 27.8636L16.456 31.4192L18.9847 26.6291L20.5715 27.4854L20.3857 26.873L22.8716 24.1127L23.0574 24.7252L23.0603 24.7347Z" fill="#862C23"/>
<path d="M23.9468 21.1114L24.3375 21.4005C24.2641 21.1928 24.1907 20.9852 24.1173 20.7776L23.9468 21.1114Z" fill="#862C23"/>
<g clip-path="url(#clip0_143_551)">
<path d="M66.3252 20.9302L57.1213 10.0888L48.1022 14.7213L47.8126 14.0985C42.0965 23.4369 41.3654 35.4145 34.8987 44.4993L34.9185 44.5294L55.4681 39.1996L63.4606 30.9476L66.3436 20.9381L66.3252 20.9302Z" fill="#E9E9E9"/>
<path d="M62.2821 29.5018L63.7866 20.3842L56.9323 12.1706L46.4965 17.2225L46.3335 16.7622C42.1206 25.1964 40.8868 35.2112 35.7312 43.2558L55.038 37.7566L62.2913 29.5057L62.2821 29.5018Z" fill="#862C23"/>
<path d="M63.7827 20.3934L56.9323 12.1705L54.2008 13.7156L54.3713 21.4477L42.919 25.6441L42.571 26.4633C40.7546 32.0694 39.1013 37.7773 36.0237 42.7716L47.8381 31.9167L57.3578 28.9962L62.2729 29.4978L63.7774 20.3803L63.7827 20.3934Z" fill="#F4200C"/>
<path d="M51.4427 34.8385L35.8043 43.1346C35.8043 43.1346 35.7468 43.2189 35.718 43.261L55.0249 37.7618L51.4296 34.8438L51.4427 34.8385Z" fill="#FF6454"/>
<path d="M57.367 29L59.6399 22.0125L54.2073 15.3371L45.5517 19.4721L45.3489 18.8753C41.9103 26.791 40.4737 35.7744 35.8004 43.1438L51.4335 34.8346L57.367 29Z" fill="#CE2424"/>
<path d="M47.7186 25.7272L46.0492 26.4088L44.8803 25.9123L46.22 24.3953L44.8831 21.046L44.3979 21.2419C44.3119 21.4444 44.2443 21.6547 44.1675 21.8611L44.8009 24.4879L44.0502 26.255L45.558 27.5908L47.4776 26.3202L50.1542 28.1526L47.7278 25.7312L47.7186 25.7272Z" fill="#862C23"/>
<path d="M55.5018 26.7411L54.9029 26.6931L54.0636 27.0319L51.9466 25.698L50.0745 27.4452L48.0574 26.5666L50.0406 28.3434L51.9219 26.6002L54.1128 28.0415L55.2179 27.0768L56.3414 28.5754L55.5188 26.7266L55.5018 26.7411Z" fill="#862C23"/>
</g>
<defs>
<clipPath id="clip0_143_551">
<rect width="21.87" height="40.54" fill="white" transform="translate(49.8502 7) rotate(23.0153)"/>
</clipPath>
</defs>
</svg>
