<svg width="92" height="58" viewBox="0 0 92 58" fill="none" xmlns="http://www.w3.org/2000/svg">
<path d="M20.8985 18.8805L9.88278 18.3516L5.20535 30.3254L10.501 39.3389L21.6547 44.7039L41.6353 44.5898C36.6649 34.5941 26.4412 28.3115 20.8908 18.8868L20.8985 18.8805Z" fill="#E9E9E9"/>
<path d="M22.5603 21.4331L10.9819 19.7135L6.79558 29.6845L10.9492 37.8721L20.8558 43.0613L40.8799 43.606L40.9503 43.2793C36.2728 34.9363 28.0252 29.1277 22.5651 21.4549L22.5603 21.4331Z" fill="#862C23"/>
<path d="M6.79558 29.6845L10.9429 37.8643L16.2149 36.308L19.7266 28.5263L15.7969 22.6382L14.993 21.6421L14.6793 20.2504L10.9819 19.7135L6.79558 29.6845Z" fill="#F4200C"/>
<path d="M29.3488 29.3187L40.8736 43.5982L40.6561 42.7714C37.6981 37.7053 33.4401 33.56 29.3488 29.3187Z" fill="#F4200C"/>
<path d="M40.8736 43.5983L40.944 43.2715C40.944 43.2715 40.8968 43.1812 40.8731 43.136L40.8736 43.5983Z" fill="#FF6454"/>
<path d="M21.727 40.0965L20.9563 43.1858L40.8736 43.5983L22.4016 37.9071L21.727 40.0965Z" fill="#FF6454"/>
<path d="M23.9614 23.2965L15.1186 21.7978L11.3246 30.0258L16.2149 36.308L20.6248 39.097L40.8813 43.592L40.8794 43.1438C36.5769 35.5519 29.327 30.0561 23.9614 23.2965Z" fill="#CE2424"/>
<path d="M27.8832 29.525L28.2224 28.1461C27.9353 27.8381 27.6545 27.5379 27.3736 27.2377L27.8832 29.525Z" fill="#862C23"/>
<path d="M25.0633 26.031L26.7617 26.575C26.0367 25.7723 25.3195 24.9632 24.6397 24.1369L25.0633 26.031Z" fill="#862C23"/>
<path d="M31.7247 36.3067L32.1412 32.2053C31.7897 31.8336 31.4305 31.4681 31.0713 31.1026L31.7247 36.3067Z" fill="#862C23"/>
<path d="M27.8832 29.5249L30.1049 30.0963C29.4774 29.4462 28.8499 28.7961 28.2302 28.1397L27.891 29.5187L27.8832 29.5249Z" fill="#862C23"/>
<path d="M34.6329 38.907L36.4251 39.1055L37.1407 40.9952L38.9329 41.1937L37.631 40.5996L36.9231 38.7035L35.1309 38.5051L34.5051 35.7076L31.813 35.413L31.7247 36.3067L34.0071 36.1095L34.6329 38.907Z" fill="#862C23"/>
<path d="M23.8609 23.1719L23.5375 23.1374L24.8711 27.8309L24.3731 28.2329L26.077 29.325L25.2731 28.329L25.3692 27.429L25.1111 26.2494L25.0633 26.031L24.6397 24.1368C24.3822 23.8178 24.1247 23.4987 23.8672 23.1797L23.8609 23.1719Z" fill="#862C23"/>
<path d="M26.091 29.3265L24.9184 31.9178L26.1243 33.4119L23.834 33.6154L22.477 38.0004L23.0239 32.6116L24.816 32.81L24.4141 32.312L25.6828 28.8207L26.0848 29.3187L26.091 29.3265Z" fill="#862C23"/>
<path d="M25.5535 25.6353L26.0241 25.7566C25.8782 25.5917 25.7322 25.4268 25.5863 25.2619L25.5535 25.6353Z" fill="#862C23"/>
<g clip-path="url(#clip0_143_552)">
<path d="M85.7282 34.0848L81.2522 20.5861L71.1547 21.5053L71.1194 20.8194C62.323 27.339 57.1611 38.1718 47.7636 44.1752L47.7707 44.2105L68.8213 46.9612L79.3218 42.3013L85.7424 34.0989L85.7282 34.0848Z" fill="#E9E9E9"/>
<path d="M78.7703 40.5195L83.5786 32.6282L80.2976 22.4459L68.7294 23.2237L68.7506 22.7358C61.6866 28.9795 56.7934 37.8042 49.0011 43.3338L68.9627 45.4622L78.7774 40.5266L78.7703 40.5195Z" fill="#862C23"/>
<path d="M83.5715 32.6353L80.2976 22.4459L77.1864 22.856L74.4499 30.0897L62.2593 29.6937L61.63 30.3231C57.847 34.8415 54.1771 39.5154 49.4536 42.9944L64.4726 37.3517L74.3933 38.2073L78.7632 40.5125L83.5715 32.6211V32.6353Z" fill="#F4200C"/>
<path d="M66.7212 41.4105L49.1142 43.2489C49.1142 43.2489 49.0294 43.3055 48.9869 43.3338L68.9486 45.4622L66.707 41.4105H66.7212Z" fill="#FF6454"/>
<path d="M74.4004 38.2144L79.1238 32.5858L76.5853 24.3621L67.0111 24.9561L67.0465 24.3268C60.8946 30.3796 56.1994 38.1719 49.1072 43.256L66.7141 41.4034L74.4004 38.2144Z" fill="#CE2424"/>
<path d="M66.6788 31.5675L64.8756 31.5746L63.9776 30.6765L65.7878 29.7714L65.8019 26.1652L65.2787 26.1652C65.1231 26.3208 64.9817 26.4905 64.8332 26.6531L64.4372 29.326L63.0796 30.6836L63.9776 32.4867L66.2333 32.0271L68.0293 34.7283L66.6858 31.5746L66.6788 31.5675Z" fill="#862C23"/>
<path d="M73.5165 35.4212L72.9791 35.1525L72.074 35.1525L70.6103 33.1231L68.2202 34.0424L66.6788 32.4726L67.8525 34.8626L70.2496 33.9505L71.7416 36.1071L73.1276 35.6263L73.6084 37.4365L73.5377 35.4142L73.5165 35.4212Z" fill="#862C23"/>
</g>
<defs>
<clipPath id="clip0_143_552">
<rect width="21.87" height="40.54" fill="white" transform="translate(75.6661 15) rotate(45)"/>
</clipPath>
</defs>
</svg>
