<svg width="52" height="49" viewBox="0 0 52 49" fill="none" xmlns="http://www.w3.org/2000/svg">
<g clip-path="url(#clip0_143_680)">
<g filter="url(#filter0_d_143_680)">
<path d="M25.7027 40.7473L42.8873 27.8061L47.1081 17.0836L45.82 6.7403L32.8378 0.358887L26.2098 8.14815L17.2703 0.358887L5.87325 6.7403L4.2973 17.0836L9.72402 28.2666L25.7027 40.7473Z" fill="#E9E9E9"/>
<path d="M25.7027 39.4652L41.9189 26.6435L45.4435 16.2108L43.2162 7.23562L33.4865 2.35368L25.7027 11.0821L17.2703 2.10693L7.54055 7.23562L5.5946 16.2108L10.1351 26.4682L25.7027 39.4652Z" fill="#862C23"/>
<path d="M18.5676 14.4629L19.2162 7.41092V6.12875L19.8649 4.84658L17.2703 2.10693L7.54055 7.23562L5.5946 16.2108L10.7838 18.3094L18.5676 14.4629ZM25.7028 39.4652L32.8378 24.0792L40.6216 17.6683L45.4436 16.2108L43.2163 7.23562L33.4866 2.35368L31.5406 4.84658L34.7838 11.8985L25.7028 20.2326V39.4652Z" fill="#F4200C"/>
<path d="M25.7027 39.4652L41.9189 26.6435L37.3784 25.3613L25.7027 39.4652ZM25.7027 39.4652L10.1351 26.6435L12.7297 24.7202L14.6757 23.4381L25.7027 39.4652Z" fill="#FF6454"/>
<path d="M25.7103 39.4653L37.3784 25.3614L40.6217 17.6684L39.9643 10.3533L32.1892 6.33203L25.7103 13.5217L19.2162 6.33203L10.9284 10.3533L10.7838 18.3095L12.497 23.2454L25.7103 39.4653Z" fill="#CE2424"/>
</g>
</g>
<defs>
<filter id="filter0_d_143_680" x="0.297302" y="0.358887" width="50.8108" height="48.3884" filterUnits="userSpaceOnUse" color-interpolation-filters="sRGB">
<feFlood flood-opacity="0" result="BackgroundImageFix"/>
<feColorMatrix in="SourceAlpha" type="matrix" values="0 0 0 0 0 0 0 0 0 0 0 0 0 0 0 0 0 0 127 0" result="hardAlpha"/>
<feOffset dy="4"/>
<feGaussianBlur stdDeviation="2"/>
<feComposite in2="hardAlpha" operator="out"/>
<feColorMatrix type="matrix" values="0 0 0 0 1 0 0 0 0 0 0 0 0 0 0 0 0 0 0.39 0"/>
<feBlend mode="normal" in2="BackgroundImageFix" result="effect1_dropShadow_143_680"/>
<feBlend mode="normal" in="SourceGraphic" in2="effect1_dropShadow_143_680" result="shape"/>
</filter>
<clipPath id="clip0_143_680">
<rect width="52" height="49" fill="white"/>
</clipPath>
</defs>
</svg>
