<svg width="48" height="46" viewBox="0 0 48 46" fill="none" xmlns="http://www.w3.org/2000/svg">
<path d="M22.7027 40.7473L39.8873 27.8061L44.1081 17.0836L42.82 6.7403L29.8378 0.358887L23.2098 8.14815L14.2703 0.358887L2.87325 6.7403L1.2973 17.0836L6.72402 28.2666L22.7027 40.7473Z" fill="#E9E9E9"/>
<path d="M22.7027 39.4652L38.9189 26.6435L42.4435 16.2108L40.2162 7.23562L30.4865 2.35368L22.7027 11.0821L14.2703 2.10693L4.54055 7.23562L2.5946 16.2108L7.13515 26.4682L22.7027 39.4652Z" fill="#862C23"/>
<path d="M15.5676 14.4629L16.2162 7.41092V6.12875L16.8649 4.84658L14.2703 2.10693L4.54055 7.23562L2.5946 16.2108L7.78379 18.3094L15.5676 14.4629ZM22.7028 39.4652L29.8378 24.0792L37.6216 17.6683L42.4436 16.2108L40.2163 7.23562L30.4866 2.35368L28.5406 4.84658L31.7838 11.8985L22.7028 20.2326V39.4652Z" fill="#F4200C"/>
<path d="M22.7027 39.4652L38.9189 26.6435L34.3784 25.3613L22.7027 39.4652ZM22.7027 39.4652L7.13512 26.6435L9.72972 24.7202L11.6757 23.4381L22.7027 39.4652Z" fill="#FF6454"/>
<path d="M22.7103 39.4653L34.3784 25.3614L37.6217 17.6684L36.9643 10.3533L29.1892 6.33203L22.7103 13.5217L16.2162 6.33203L7.9284 10.3533L7.78381 18.3095L9.49703 23.2454L22.7103 39.4653Z" fill="#CE2424"/>
<path d="M22.7027 13.3046L21.4054 15.869L22.7027 17.7922L21.4054 20.3566L24 18.4333L22.7027 15.869L24 12.0225L22.7027 13.3046Z" fill="#862C23"/>
</svg>
